<mxfile host="app.diagrams.net" agent="Mozilla/5.0 (Windows NT 10.0; Win64; x64) AppleWebKit/537.36 (KHTML, like Gecko) Chrome/139.0.0.0 Safari/537.36 Edg/139.0.0.0" version="28.1.1">
  <diagram name="Page-1" id="XDPCsSQfRMQ0sJvshjU1">
    <mxGraphModel dx="1034" dy="666" grid="1" gridSize="10" guides="1" tooltips="1" connect="1" arrows="1" fold="1" page="1" pageScale="1" pageWidth="850" pageHeight="1100" math="0" shadow="0">
      <root>
        <mxCell id="0" />
        <mxCell id="1" parent="0" />
        <mxCell id="JsIupjtH0TNUoxmgYW-l-1" value="Frontend" style="whiteSpace=wrap;strokeWidth=2;" vertex="1" parent="1">
          <mxGeometry x="380" y="60" width="125" height="54" as="geometry" />
        </mxCell>
        <mxCell id="JsIupjtH0TNUoxmgYW-l-2" value="PostHog: events &amp; metrics" style="whiteSpace=wrap;strokeWidth=2;" vertex="1" parent="1">
          <mxGeometry x="236" y="164" width="249" height="54" as="geometry" />
        </mxCell>
        <mxCell id="JsIupjtH0TNUoxmgYW-l-3" value="Dashboards (funnel, latency)" style="whiteSpace=wrap;strokeWidth=2;" vertex="1" parent="1">
          <mxGeometry x="230" y="268" width="260" height="78" as="geometry" />
        </mxCell>
        <mxCell id="JsIupjtH0TNUoxmgYW-l-4" value="Slack #quiz-alerts" style="whiteSpace=wrap;strokeWidth=2;" vertex="1" parent="1">
          <mxGeometry x="267" y="396" width="187" height="54" as="geometry" />
        </mxCell>
        <mxCell id="JsIupjtH0TNUoxmgYW-l-5" value="Runbook: check flags,&#xa;kill-switch if needed" style="whiteSpace=wrap;strokeWidth=2;" vertex="1" parent="1">
          <mxGeometry x="313" y="500" width="260" height="78" as="geometry" />
        </mxCell>
        <mxCell id="JsIupjtH0TNUoxmgYW-l-6" value="" style="curved=1;startArrow=none;endArrow=block;exitX=0.16;exitY=1;entryX=0.5;entryY=0;rounded=0;" edge="1" parent="1" source="JsIupjtH0TNUoxmgYW-l-1" target="JsIupjtH0TNUoxmgYW-l-2">
          <mxGeometry relative="1" as="geometry">
            <Array as="points">
              <mxPoint x="360" y="139" />
            </Array>
          </mxGeometry>
        </mxCell>
        <mxCell id="JsIupjtH0TNUoxmgYW-l-7" value="" style="curved=1;startArrow=none;endArrow=block;exitX=0.5;exitY=1;entryX=0.5;entryY=0;rounded=0;" edge="1" parent="1" source="JsIupjtH0TNUoxmgYW-l-2" target="JsIupjtH0TNUoxmgYW-l-3">
          <mxGeometry relative="1" as="geometry">
            <Array as="points" />
          </mxGeometry>
        </mxCell>
        <mxCell id="JsIupjtH0TNUoxmgYW-l-8" value="" style="curved=1;startArrow=none;endArrow=block;exitX=0.5;exitY=1;entryX=0.5;entryY=0;rounded=0;" edge="1" parent="1" source="JsIupjtH0TNUoxmgYW-l-3" target="JsIupjtH0TNUoxmgYW-l-4">
          <mxGeometry relative="1" as="geometry">
            <Array as="points" />
          </mxGeometry>
        </mxCell>
        <mxCell id="JsIupjtH0TNUoxmgYW-l-9" value="" style="curved=1;startArrow=none;endArrow=block;exitX=0.5;exitY=1;entryX=0.3;entryY=0;rounded=0;" edge="1" parent="1" source="JsIupjtH0TNUoxmgYW-l-4" target="JsIupjtH0TNUoxmgYW-l-5">
          <mxGeometry relative="1" as="geometry">
            <Array as="points">
              <mxPoint x="360" y="475" />
            </Array>
          </mxGeometry>
        </mxCell>
        <mxCell id="JsIupjtH0TNUoxmgYW-l-10" value="" style="curved=1;startArrow=none;endArrow=block;exitX=0.69;exitY=0;entryX=0.84;entryY=1;rounded=0;" edge="1" parent="1" source="JsIupjtH0TNUoxmgYW-l-5" target="JsIupjtH0TNUoxmgYW-l-1">
          <mxGeometry relative="1" as="geometry">
            <Array as="points">
              <mxPoint x="525" y="475" />
              <mxPoint x="525" y="139" />
            </Array>
          </mxGeometry>
        </mxCell>
      </root>
    </mxGraphModel>
  </diagram>
</mxfile>
